<svg width="21" height="13" viewBox="0 0 21 13" fill="none" xmlns="http://www.w3.org/2000/svg">
<path d="M15.669 12.5373C15.0201 12.5454 14.3755 12.431 13.769 12.2003C13.2256 11.989 12.7346 11.6621 12.33 11.2423C11.9314 10.8133 11.6236 10.3082 11.425 9.75729C11.2069 9.14787 11.0989 8.50453 11.106 7.85729C11.1014 7.22121 11.2125 6.58958 11.434 5.99329C11.6405 5.43726 11.9583 4.92923 12.368 4.50029C12.7788 4.07669 13.2696 3.73884 13.812 3.50629C14.3995 3.25778 15.0322 3.13416 15.67 3.14329C16.3555 3.12865 17.0343 3.27958 17.649 3.58329C18.1977 3.86471 18.6735 4.26968 19.039 4.76629C19.4077 5.27354 19.6737 5.84798 19.822 6.45729C19.9838 7.10504 20.0416 7.77441 19.993 8.44029H13.562C13.5364 9.07277 13.7532 9.69118 14.168 10.1693C14.6038 10.5516 15.1736 10.7451 15.752 10.7073C16.2063 10.7179 16.6527 10.5876 17.03 10.3343C17.3295 10.1514 17.5594 9.87373 17.683 9.54529H19.838C19.5938 10.474 19.0319 11.2878 18.25 11.8453C17.4761 12.324 16.5786 12.5646 15.669 12.5373ZM15.6 4.99329C15.264 4.98067 14.9299 5.04928 14.626 5.19329C14.3884 5.31312 14.1775 5.4798 14.006 5.68329C13.8551 5.86817 13.7435 6.08185 13.678 6.31129C13.6203 6.50246 13.583 6.69924 13.567 6.89829H17.549C17.5203 6.37973 17.3226 5.88484 16.986 5.48929C16.6135 5.13766 16.111 4.95782 15.6 4.99329ZM5.97 12.3053H0V0.000292957H5.8C6.3373 -0.00441091 6.8736 0.0475429 7.4 0.155293C7.84587 0.242338 8.27068 0.414842 8.651 0.663293C8.99449 0.901726 9.27016 1.22529 9.451 1.60229C9.65065 2.05643 9.74632 2.54944 9.731 3.04529C9.75266 3.59389 9.60725 4.13614 9.314 4.60029C8.9931 5.04338 8.55942 5.39247 8.058 5.61129C8.73933 5.78157 9.33817 6.188 9.748 6.75829C10.1287 7.34512 10.3213 8.03413 10.3 8.73329C10.3145 9.29248 10.1916 9.84668 9.942 10.3473C9.71169 10.7913 9.37755 11.1731 8.968 11.4603C8.54341 11.7557 8.06922 11.9725 7.568 12.1003C7.04477 12.2377 6.50598 12.3069 5.965 12.3063L5.97 12.3053ZM2.71 6.82229V10.2123H5.6C5.85541 10.215 6.11033 10.1892 6.36 10.1353C6.58857 10.0912 6.80611 10.0021 7 9.87329C7.18672 9.7505 7.33834 9.58131 7.44 9.38229C7.5579 9.13265 7.61349 8.85814 7.602 8.58229C7.65047 8.07041 7.45215 7.56606 7.068 7.22429C6.65353 6.93897 6.15651 6.79837 5.654 6.82429L2.71 6.82229ZM2.71 2.09729V4.97229H5.452C5.87616 4.98899 6.29433 4.86796 6.644 4.62729C6.97362 4.35355 7.14719 3.93497 7.108 3.50829C7.11645 3.26337 7.06423 3.02016 6.956 2.80029C6.85824 2.62255 6.71413 2.47464 6.539 2.37229C6.35458 2.26293 6.15091 2.18995 5.939 2.15729C5.70824 2.11403 5.47377 2.0936 5.239 2.09629L2.71 2.09729ZM18.051 2.04129H13.061V0.826293H18.051V2.04029V2.04129Z" fill="#D6D6D6"/>
</svg>
