<svg width="54" height="54" viewBox="0 0 54 54" fill="none" xmlns="http://www.w3.org/2000/svg">
<path d="M13.3312 17.688H28.5954L28.0892 22.8273H12.7636L13.3312 17.688Z" fill="white"/>
<path d="M27.8591 22.7199H43.1233L42.617 27.8437H27.2761L27.8591 22.7199Z" fill="white"/>
<path d="M12.2267 27.7364H27.4909L26.9846 32.8756H11.6437L12.2267 27.7364Z" fill="white"/>
<path d="M31.6789 32.8909H36.7107L36.1124 37.7693L31.0346 37.8L31.6789 32.8909Z" fill="white"/>
<path d="M27 0C12.1193 0 0 12.1193 0 27C0 41.8807 12.1193 54 27 54C41.8807 54 54 41.896 54 27C54 12.104 41.8807 0 27 0ZM27 50.2568C14.175 50.2568 3.74318 39.825 3.74318 27C3.74318 14.175 14.175 3.74318 27 3.74318C39.825 3.74318 50.2568 14.175 50.2568 27C50.2568 39.825 39.825 50.2568 27 50.2568Z" fill="white"/>
<path d="M49.0637 48.2629C49.0764 48.1786 49.1045 48.1045 49.1403 48.0407C49.1761 47.9768 49.2271 47.9232 49.291 47.8823C49.3523 47.844 49.4289 47.8261 49.5234 47.8236C49.5821 47.8261 49.6358 47.8364 49.6843 47.8568C49.7354 47.8798 49.7814 47.9104 49.8171 47.9487C49.8529 47.9871 49.881 48.033 49.904 48.0841C49.9269 48.1352 49.9372 48.1914 49.9397 48.2476H50.3969C50.3918 48.1275 50.3688 48.0177 50.3254 47.9181C50.282 47.8185 50.2232 47.7316 50.1466 47.6601C50.07 47.5886 49.978 47.5324 49.8708 47.4916C49.7635 47.4507 49.646 47.4328 49.5157 47.4328C49.3497 47.4328 49.2041 47.4609 49.0816 47.5197C48.959 47.5784 48.8568 47.655 48.7751 47.7546C48.6933 47.8542 48.632 47.9692 48.5937 48.102C48.5554 48.2348 48.5324 48.3727 48.5324 48.5209V48.5898C48.5324 48.7379 48.5529 48.8759 48.5912 49.0087C48.6295 49.1415 48.6908 49.2564 48.7725 49.3535C48.8542 49.4505 48.9564 49.5297 49.079 49.5859C49.2016 49.6421 49.3472 49.6727 49.5132 49.6727C49.6332 49.6727 49.7456 49.6523 49.8503 49.614C49.955 49.5757 50.047 49.522 50.1262 49.4531C50.2053 49.3841 50.2692 49.3049 50.3152 49.213C50.3611 49.1211 50.3892 49.024 50.3918 48.9193H49.9346C49.9321 48.9729 49.9193 49.0214 49.8963 49.0674C49.8733 49.1134 49.8427 49.1517 49.8044 49.1849C49.766 49.2181 49.7226 49.2436 49.6715 49.2615C49.623 49.2794 49.5719 49.2845 49.5183 49.2871C49.4264 49.2845 49.3497 49.2666 49.291 49.2283C49.2271 49.1875 49.1761 49.1338 49.1403 49.07C49.1045 49.0061 49.0764 48.9295 49.0637 48.8452C49.0509 48.7609 49.0432 48.6741 49.0432 48.5898V48.5209C49.0432 48.4315 49.0509 48.3472 49.0637 48.2629ZM49.5541 46C48.1442 46 47 47.1442 47 48.5541C47 49.9639 48.1442 51.1081 49.5541 51.1081C50.9639 51.1081 52.1081 49.9639 52.1081 48.5541C52.1081 47.1442 50.9639 46 49.5541 46ZM49.5541 50.5973C48.4277 50.5973 47.5108 49.6804 47.5108 48.5541C47.5108 47.4277 48.4277 46.5108 49.5541 46.5108C50.6804 46.5108 51.5973 47.4277 51.5973 48.5541C51.5973 49.6804 50.6804 50.5973 49.5541 50.5973Z" fill="white"/>
</svg>
