<svg width="140" height="140" viewBox="0 0 140 140" fill="none" xmlns="http://www.w3.org/2000/svg">
<g clip-path="url(#clip0)">
<path d="M10.3 33.4L15 26.7L16.4 27.7L12.8 32.9L15.8 35L18.7 30.8L20.1 31.7L17.2 35.9L20.5 38.2L24.2 32.9L25.6 33.9L20.8 40.8L10.3 33.4Z" fill="white"/>
<path d="M17.7 23.4L20.5 20.7C23 18.2 26.6 17.8 29.5 20.8C32.4 23.8 31.8999 27.4 29.2999 29.8L26.5 32.5L17.7 23.4ZM28.1 28.6C29.8 26.9 30.5 24.5 28.1 22C25.8 19.6 23.2 20.2 21.5 21.8L20.1 23.1L26.6 29.8L28.1 28.6Z" fill="white"/>
<path d="M27.1 14.1L28.8 13.1L36.4 20.2L34 10.1L35.4 9.30001L43 16.3L40.6 6.20001L42.3 5.20001L45.4 18.1L43.8 19.1L36.3 12.2L38.7 22.2L37.1 23.1L27.1 14.1Z" fill="white"/>
<path d="M46 4.39999L47.8 3.79999L52 15.8L50.2 16.4L46 4.39999Z" fill="white"/>
<path d="M51.9 2.3L54 1.9L61.8 10.4L60 0.8L61.9 0.5L64.3 13L62.2 13.4L54.3 4.9L56.1 14.5L54.2 14.9L51.9 2.3Z" fill="white"/>
<path d="M74.3 2L70.3 1.7L70.5 0L80.3 0.8L80.2 2.5L76.2 2.2L75.4 13.2L73.5 13L74.3 2Z" fill="white"/>
<path d="M83.6 1.39999L91.5 3.39999L91 4.99999L85 3.49999L84.1 6.99999L89 8.29999L88.6 9.89999L83.7 8.59999L82.7 12.5L89 14.1L88.6 15.7L80.5 13.6L83.6 1.39999Z" fill="white"/>
<path d="M91.3 15.2C92.1 15.5 92.7 15.1 93.1 14L96.6 5.39999L98.3 6.09999L94.7 14.7C93.8 16.8 92.5 17.4 90.8 16.7L89.2 16L89.8 14.5L91.3 15.2Z" fill="white"/>
<path d="M103.2 19.6L98.6 16.8L95.9 18.9L94.2 17.9L105 9.60001L106.5 10.5L104.3 24L102.6 23L103.2 19.6ZM103.5 17.8L104.5 12L99.9 15.6L103.5 17.8Z" fill="white"/>
<path d="M113.6 15.2L116.5 17.8C119.1 20.2 119.7 23.8 116.9 26.8C114.1 29.9 110.5 29.5 107.9 27.2L105 24.6L113.6 15.2ZM108.9 26C110.6 27.6 113.2 28.1 115.5 25.6C117.8 23.1 117 20.6 115.3 19L113.9 17.7L107.6 24.6L108.9 26Z" fill="white"/>
<path d="M120.3 36.6L117.1 32.2L113.8 33.1L112.7 31.5L125.9 28L126.9 29.4L119.6 41L118.4 39.4L120.3 36.6ZM121.3 35.1L124.5 30.2L118.9 31.8L121.3 35.1Z" fill="white"/>
<path d="M133.8 41.4L135.1 45.1C136.3 48.4 135.2 51.9 131.3 53.3C127.4 54.7 124.3 52.8 123.1 49.5L121.8 45.8L133.8 41.4ZM124.8 48.8C125.6 51 127.6 52.6 130.8 51.5C134 50.3 134.4 47.8 133.6 45.6L132.9 43.8L124.1 47L124.8 48.8Z" fill="white"/>
<path d="M138.1 54.7L138.5 56.5L126 59.1L125.6 57.2L138.1 54.7Z" fill="white"/>
<path d="M132.9 60.5C137.2 60.2 139.6 63.1 139.8 66.3C140 69.3 138.3 71.7 135.9 72.1L135.8 70.1C137.3 69.8 138.3 68.2 138.2 66.4C138 63.9 136.2 62.2 133.1 62.4C130 62.6 128.3 64.5 128.5 67C128.6 68.9 129.9 70.6 131.5 70.5C132 70.5 132.3 70.1 132.3 69.6L132.1 66.8L133.6 66.7L133.8 69.9C133.9 70.9 133.2 72.1 131.8 72.2L127.3 72.5L127.2 70.8L129.3 70.7C127.9 70.2 126.9 68.8 126.8 67C126.6 63.9 128.6 60.8 132.9 60.5Z" fill="white"/>
<path d="M139.5 75.8L139.3 77.7L126.6 76.5L126.8 74.6L139.5 75.8Z" fill="white"/>
<path d="M136.6 84.1L137.5 80.2L139.1 80.6L136.9 90.2L135.3 89.8L136.2 85.9L125.4 83.5L125.8 81.7L136.6 84.1Z" fill="white"/>
<path d="M124.9 95L126.9 90L124.4 87.7L125.1 85.9L135 95.3L134.3 96.9L120.7 96.8L121.4 95H124.9ZM126.7 95.1L132.5 95.2L128.2 91.2L126.7 95.1Z" fill="white"/>
<path d="M130.8 104.5L129.8 106.1L120.5 100.2L117.2 105.4L115.8 104.5L120.1 97.7L130.8 104.5Z" fill="white"/>
<path d="M117 112.9C119.9 116.1 119.1 119.7 116.8 121.9C114.6 123.9 111.7 124.1 109.8 122.5L111.3 121.2C112.5 122.2 114.3 122 115.7 120.7C117.6 119 117.8 116.5 115.7 114.2C113.6 111.9 111 111.8 109.2 113.5C107.8 114.8 107.2 116.9 108.4 118.1C108.7 118.5 109.2 118.5 109.6 118.1L111.6 116.2L112.6 117.3L110.2 119.5C109.5 120.2 108 120.4 107.1 119.4L104.1 116.1L105.4 114.9L106.8 116.5C106.3 115.1 106.8 113.4 108.1 112.2C110.5 110.1 114.1 109.7 117 112.9Z" fill="white"/>
<path d="M96.5 124.3L94.7 121.6L96.3 120.7L98.1 123.3C98.7 124.2 99.8 124.6 100.7 124L103.5 122.4L101 118L102.6 117.1L109 128.1L104.7 130.6C102.5 131.9 100.4 131.3 99.2 129.4C98.5 128.2 98.7 127 99.4 126C98.2 125.9 97.2 125.4 96.5 124.3ZM104.2 123.9L101.6 125.4C100.2 126.2 100.2 127.5 100.7 128.5C101.3 129.5 102.3 130.1 103.8 129.2L106.4 127.7L104.2 123.9Z" fill="white"/>
<path d="M86.4 128.1L91.5 126.4L91.6 122.9L93.4 122.3L92.8 136L91.1 136.5L82.4 126L84.3 125.4L86.4 128.1ZM87.5 129.5L91.2 134L91.4 128.2L87.5 129.5Z" fill="white"/>
<path d="M83 138.7L78.1 139.3C75.6 139.6 73.8 138.3 73.5 136C73.2 133.8 74.5 132 77.1 131.7L80.1 131.3L79.5 126.3L81.4 126.1L83 138.7ZM77.3 133.4C75.7 133.6 75.2 134.7 75.3 135.9C75.4 137.1 76.2 138 77.8 137.8L80.8 137.4L80.2 133L77.3 133.4Z" fill="white"/>
<path d="M60 139.3L60.9 126.6L62.8 126.7L62.4 132.4L68.7 132.8L69.1 127.1L71 127.2L70.1 140L68.2 139.9L68.6 134.6L62.3 134.2L61.9 139.5L60 139.3Z" fill="white"/>
<path d="M55.9 138.4L54 138L56.7 125.6L58.5 126L55.9 138.4Z" fill="white"/>
<path d="M52.7001 131.4C51.1001 135.5 47.6001 136.4 44.6001 135.3C41.9001 134.3 40.4001 131.8 40.9001 129.4L42.8001 130.1C42.5001 131.6 43.5001 133.1 45.2001 133.8C47.5001 134.7 49.8001 133.7 50.9001 130.8C52.0001 127.9 51.0001 125.6 48.7001 124.8C46.9001 124.1 45.1001 124.6 44.4001 125.9L42.6001 125.2C43.7001 123 46.5001 122.2 49.2001 123.2C52.3001 124.2 54.2001 127.3 52.7001 131.4Z" fill="white"/>
<path d="M31.4 128.4L28.3 126C25.5 123.8 24.6 120.3 27.1 117.1C29.6 113.8 33.2 113.8 36 116L39.1 118.4L31.4 128.4ZM35.1 117.3C33.2 115.9 30.7 115.6 28.6 118.2C26.6 120.9 27.5 123.3 29.4 124.7L30.9 125.9L36.6 118.5L35.1 117.3Z" fill="white"/>
<path d="M20.3 119.3L14.9 113.2L16.1 112.1L20.3 116.8L23 114.4L19.6 110.6L20.8 109.5L24.2 113.3L27.2 110.6L22.9 105.8L24.1 104.7L29.7 110.9L20.3 119.3Z" fill="white"/>
<path d="M20 105.9L19 104.3C20.3 103.3 20.7 101.9 19.7 100.3C18.9 98.9 17.7 98.3 16.6 99C14 100.6 19.3 105.8 15.3 108.2C13.6 109.3 11.4 108.5 10.1 106.3C8.80005 104.1 9.10005 101.8 11 100.4L12 102C10.9 102.8 10.7 104.1 11.6 105.4C12.4 106.7 13.5 107.1 14.4 106.6C17 105 11.5 99.9 15.7 97.4C17.7 96.2 19.9 97.2 21.3 99.5C22.7 101.9 22.2 104.4 20 105.9Z" fill="white"/>
<path d="M6.39998 99.1L5.59998 97.4L17.3 92.3L18.1 94L6.39998 99.1Z" fill="white"/>
<path d="M10.2 92.3C5.99998 93.4 3.19998 91.1 2.29998 88C1.49998 85.1 2.69998 82.4 4.99998 81.5L5.49998 83.4C4.09998 84 3.39998 85.7 3.89998 87.5C4.49998 89.9 6.69998 91.2 9.69998 90.4C12.7 89.6 13.9 87.4 13.3 85C12.8 83.1 11.2 81.7 9.59998 82.1C9.09998 82.2 8.89998 82.6 8.99998 83.1L9.69998 85.8L8.19998 86.2L7.39998 83.1C7.09998 82.1 7.59998 80.8 8.89998 80.4L13.2 79.2L13.6 80.8L11.5 81.4C13 81.6 14.2 82.8 14.7 84.5C15.7 87.7 14.4 91.2 10.2 92.3Z" fill="white"/>
<path d="M0.3 77.9L0.2 75.8L9.8 69.4L0 69.7L0 67.8L12.7 67.4L12.8 69.5L3.2 75.9L13 75.6L13.1 77.5L0.3 77.9Z" fill="white"/>
<path d="M0.300049 63.2L1.50005 55.1L3.20005 55.4L2.30005 61.6L5.90005 62.1L6.70005 57.1L8.40005 57.4L7.60005 62.4L11.6 63L12.6 56.6L14.3 56.9L13 65.2L0.300049 63.2Z" fill="white"/>
<path d="M14.4 45.8L17.6 46.6L17 48.4L14 47.6C12.9 47.3 11.9 47.7 11.5 48.8L10.4 51.8L15.1 53.5L14.5 55.3L2.5 51L4.2 46.3C5.1 43.9 7 42.9 9.2 43.7C10.5 44.2 11.1 45.2 11.3 46.4C12.1 45.7 13.3 45.4 14.4 45.8ZM8.9 51.2L9.9 48.3C10.5 46.7 9.7 45.8 8.6 45.4C7.5 45 6.3 45.3 5.8 46.8L4.8 49.7L8.9 51.2Z" fill="white"/>
<path d="M36.4548 46H74.5784L73.276 58.7868H35.0341L36.4548 46Z" fill="white"/>
<path d="M72.6841 58.55H110.808L109.505 71.3368H71.2633L72.6841 58.55Z" fill="white"/>
<path d="M33.7317 71.1H71.7368L70.4345 83.8868H32.1925L33.7317 71.1Z" fill="white"/>
<path d="M82.2741 83.65H94.7057L93.285 96.0816L80.6166 96.2L82.2741 83.65Z" fill="white"/>
</g>
<defs>
<clipPath id="clip0">
<rect width="139.8" height="140" fill="white"/>
</clipPath>
</defs>
</svg>
