<svg width="189" height="35" viewBox="0 0 189 35" fill="none" xmlns="http://www.w3.org/2000/svg">
<path d="M124.945 24.7577C122.617 24.7577 121.506 24.6494 121.506 22.2399C121.506 19.4242 126.136 20.1822 128.356 18.991C128.356 20.9674 128.762 24.7577 124.945 24.7577ZM160.249 24.4058C154.158 24.4058 154.455 12.8723 159.735 12.8723C163.363 12.8723 164.5 15.6338 164.392 18.612C164.31 21.184 163.417 24.4058 160.249 24.4058ZM116.66 20.6425H113.059C112.68 21.4547 112.762 22.646 111.435 23.6748C111.191 23.8372 110.975 23.9726 110.758 24.0538C103.908 27.0049 102.934 12.8994 108.944 12.8994C111.029 12.8994 112.68 13.8199 112.735 15.9587L117.283 15.9858C118.203 15.9587 117.852 16.0129 117.797 15.2548H122.129C122.129 12.2225 124.728 12.5745 126.271 12.5745C128.464 12.5745 128.437 14.1448 128.437 15.2548C128.437 17.3936 121.669 16.5543 118.718 18.3412C117.554 18.9368 117.256 19.5054 116.66 20.6425ZM94.8658 2.96324V27.2756C94.8658 27.6817 94.974 27.79 95.4072 27.79H100.091V21.6984C100.335 22.0774 100.551 23.2687 101.282 24.2975C104.585 29.1166 111.245 29.4957 115.252 26.2468C115.956 25.6512 116.227 25.3534 116.66 24.7577C117.445 28.0878 122.292 29.0354 126.109 27.7088C127.436 27.2485 127.706 26.7341 128.735 26.1926C128.735 26.9236 128.762 27.8171 129.466 27.8171H139.186V17.5561C139.186 13.7116 140.973 13.0618 143.518 13.0618C144.709 13.0618 145.548 14.1718 145.819 15.0923C146.198 16.2565 146.063 24.0267 146.035 26.0573C146.008 28.3044 145.304 27.8442 151.261 27.8442V22.7813L152.398 24.8931C153.264 26.1926 154.483 27.3027 155.972 27.8171C159.356 29.0354 162.144 28.2773 164.419 25.6782V27.8442H169.265V14.1448L172.974 23.9184C173.57 25.4887 175.465 29.3603 172.46 29.9288C171.783 30.0642 170.267 29.7935 169.238 29.7935C169.238 34.4231 168.48 34.7209 173.597 34.1524C178.47 33.5838 178.578 30.714 180.636 25.1368C181.042 24.0538 186.294 10.2732 186.376 9.4339H181.15L177.008 21.5089C176.954 20.6966 174.463 13.6033 174.003 12.2496C173.813 11.654 173.705 11.3561 173.515 10.7605C173.001 9.08194 173.678 9.40683 169.238 9.40683V2.42176H164.202V11.4374C163.065 10.6793 162.226 8.9195 158.598 8.9195C152.777 8.9195 151.748 13.9823 151.044 14.4967C151.044 9.19023 145.169 7.78239 141.243 9.75879C140.025 10.3544 139.917 10.9771 138.996 11.5998V9.4339H133.96L133.798 26.7341C133.798 25.5699 133.609 25.1097 133.609 23.8372L133.636 14.0906C133.581 6.8348 118.637 7.70117 117.391 13.0077C117.093 12.8452 117.012 12.6828 116.66 12.3037C114.061 8.16143 103.665 6.29333 100.416 14.957L100.091 2.39468H95.4072C94.974 2.42176 94.8658 2.55713 94.8658 2.96324Z" fill="white"/>
<path d="M35.4115 9.08197C35.4115 13.495 37.5503 15.1736 41.8551 16.5002C45.4288 17.6102 50.3563 17.7185 50.3563 21.1569C50.3563 24.5953 40.0953 25.7053 40.0953 19.37H34.491C34.491 25.2722 39.3643 28.3857 44.5895 28.3857C49.2192 28.3857 53.0366 27.6547 55.2025 23.5124L55.392 27.8442H60.6173V21.6984C60.6173 21.184 62.0251 19.9927 62.4042 19.722L66.1133 25.7324C66.4923 26.3822 67.115 27.1673 67.2775 27.8171H73.5857C72.8547 26.4634 66.1133 16.9063 66.0321 15.9317C66.7901 15.7421 70.7971 11.4915 71.6093 10.7064C71.6093 14.605 71.3656 19.0181 71.7717 22.6189C72.2049 26.5176 74.5604 28.3586 78.2695 28.3586C80.9227 28.3586 82.493 27.059 84.0362 25.2992V27.8171H88.9095V9.43393H83.6843V20.2364C83.6843 25.1909 76.8346 26.0573 76.8346 20.2364V9.43393H67.088C66.1674 9.43393 61.6732 15.0382 60.6173 15.7421V2.42178H55.392V17.3666C55.013 16.9334 54.8235 16.3919 54.2549 15.7963C52.7117 14.1719 51.0602 13.6033 48.8131 12.9535C47.1074 12.4662 40.9616 11.3832 40.9616 9.81296C40.9616 8.59464 40.7992 7.7012 42.0446 6.91605C43.2629 6.18506 48.2174 5.61651 49.2462 8.73C49.8419 10.5169 48.1904 10.1649 55.0401 10.1649C55.0401 -1.39564 35.4115 -0.0960883 35.4115 9.08197Z" fill="white"/>
<path d="M24.4195 15.4172C23.2824 12.385 19.7357 11.9518 19.7357 9.62343C19.7357 7.24092 22.7679 2.77373 18.382 1.25759C17.4073 0.959775 16.3244 0.716109 15.1602 0.634888H12.4528C10.5576 0.797331 8.68951 1.28466 7.2546 2.20517C4.46598 3.9379 2.81448 7.07848 2.02933 10.3003C1.48786 12.412 0.107086 13.3326 0.107086 15.2007C0.107086 16.419 0.540269 17.6915 1.37956 17.2041C2.51666 16.5543 0.675638 14.8487 2.62496 14.8487C4.19525 14.8487 5.84675 17.177 6.55068 18.3141C7.22752 19.4513 7.33582 19.6137 6.5236 20.6967C5.14283 22.4835 3.89743 22.8896 2.24592 21.0215C1.46078 20.1552 1.86689 19.3971 1.37956 18.4495C-0.705131 18.612 1.08175 22.3752 2.21885 23.377L3.81621 24.6765C5.65724 26.0844 7.17338 29.604 7.44411 29.8747C8.06681 30.4974 8.52707 30.4433 9.6371 30.5516C11.0449 30.6869 10.5035 31.2555 11.0991 32.1489C12.182 32.0406 12.2633 31.5804 12.3445 30.5245C13.7794 30.9035 11.8842 31.9594 14.3209 31.9594C15.1331 31.9594 15.3226 30.9577 15.4038 30.1454C15.5663 28.3586 17.2449 28.5752 20.3042 25.8678C23.5802 23.0521 26.1522 20.074 24.4195 15.4172ZM10.5576 25.8407C9.61003 25.5158 8.33755 25.7865 7.11923 25.8678C7.01093 25.3534 6.95678 25.4887 6.95678 25.1368C6.95678 23.9726 7.95852 21.9962 8.3917 21.1569L10.6118 23.6206C11.2886 24.4329 12.2633 25.2451 12.534 26.3551C10.9096 26.7612 11.9655 26.328 10.5576 25.8407ZM17.2178 22.9709C13.1567 22.9709 11.3969 18.1246 13.8336 15.2819C16.2702 12.4391 21.5225 13.7657 21.6308 18.3141C21.7121 20.7779 19.7357 22.9709 17.2178 22.9709Z" fill="white"/>
<path d="M89.2615 2.96323V27.2756C89.2615 27.6817 89.3968 27.79 89.803 27.79H94.4867V2.42175H89.803C89.3968 2.42175 89.2615 2.55712 89.2615 2.96323Z" fill="white"/>
<path d="M188 30.0101C188 28.142 186.484 26.6259 184.616 26.6259C182.748 26.6259 181.259 28.142 181.232 30.0101C181.232 31.9053 182.748 33.3943 184.616 33.3943C186.511 33.3943 188 31.8782 188 30.0101Z" stroke="white" stroke-width="0.812217"/>
<path d="M183.443 31.438V28.3429H184.759C185.09 28.3429 185.33 28.371 185.479 28.4273C185.629 28.4822 185.75 28.5808 185.84 28.7229C185.93 28.8651 185.975 29.0276 185.975 29.2106C185.975 29.4429 185.907 29.635 185.77 29.787C185.634 29.9376 185.429 30.0326 185.158 30.072C185.293 30.1509 185.404 30.2374 185.491 30.3317C185.58 30.426 185.699 30.5935 185.848 30.8342L186.226 31.438H185.479L185.027 30.7645C184.866 30.5239 184.757 30.3725 184.698 30.3106C184.638 30.2473 184.576 30.2043 184.51 30.1818C184.443 30.1579 184.339 30.1459 184.195 30.1459H184.068V31.438H183.443ZM184.068 29.6519H184.531C184.831 29.6519 185.018 29.6392 185.092 29.6139C185.167 29.5885 185.225 29.5449 185.268 29.483C185.31 29.4211 185.331 29.3436 185.331 29.2507C185.331 29.1466 185.303 29.0628 185.246 28.9995C185.192 28.9347 185.113 28.8939 185.012 28.877C184.961 28.87 184.809 28.8665 184.556 28.8665H184.068V29.6519Z" fill="white"/>
</svg>
