<svg width="189" height="34" viewBox="0 0 189 34" fill="none" xmlns="http://www.w3.org/2000/svg">
<path d="M124.838 24.1228C122.509 24.1228 121.399 24.0145 121.399 21.6049C121.399 18.7893 126.029 19.5473 128.249 18.3561C128.249 20.3325 128.655 24.1228 124.838 24.1228ZM160.142 23.7709C154.051 23.7709 154.348 12.2374 159.628 12.2374C163.256 12.2374 164.393 14.9989 164.284 17.977C164.203 20.5491 163.31 23.7709 160.142 23.7709ZM116.553 20.0076H112.952C112.573 20.8198 112.655 22.011 111.328 23.0399C111.084 23.2023 110.868 23.3377 110.651 23.4189C103.801 26.3699 102.827 12.2644 108.837 12.2644C110.922 12.2644 112.573 13.185 112.627 15.3238L117.176 15.3509C118.096 15.3238 117.744 15.3779 117.69 14.6199H122.022C122.022 11.5876 124.621 11.9396 126.164 11.9396C128.357 11.9396 128.33 13.5098 128.33 14.6199C128.33 16.7587 121.562 15.9194 118.611 17.7063C117.447 18.3019 117.149 18.8705 116.553 20.0076ZM94.7587 2.32832V26.6407C94.7587 27.0468 94.867 27.1551 95.3001 27.1551H99.9839V21.0635C100.228 21.4425 100.444 22.6337 101.175 23.6626C104.478 28.4817 111.138 28.8607 115.145 25.6119C115.849 25.0162 116.12 24.7184 116.553 24.1228C117.338 27.4529 122.185 28.4005 126.002 27.0739C127.329 26.6136 127.599 26.0992 128.628 25.5577C128.628 26.2887 128.655 27.1822 129.359 27.1822H139.079V16.9212C139.079 13.0767 140.866 12.4269 143.41 12.4269C144.602 12.4269 145.441 13.5369 145.712 14.4574C146.091 15.6216 145.955 23.3918 145.928 25.4224C145.901 27.6695 145.197 27.2092 151.154 27.2092V22.1464L152.291 24.2582C153.157 25.5577 154.375 26.6678 155.864 27.1822C159.249 28.4005 162.037 27.6424 164.312 25.0433V27.2092H169.158V13.5098L172.867 23.2835C173.463 24.8538 175.358 28.7254 172.352 29.2939C171.676 29.4293 170.16 29.1586 169.131 29.1586C169.131 33.7882 168.373 34.086 173.49 33.5175C178.363 32.9489 178.471 30.0791 180.529 24.5018C180.935 23.4189 186.187 9.63827 186.268 8.79898H181.043L176.901 20.8739C176.847 20.0617 174.356 12.9684 173.896 11.6147C173.706 11.019 173.598 10.7212 173.408 10.1256C172.894 8.44702 173.571 8.77191 169.131 8.77191V1.78684H164.095V10.8025C162.958 10.0444 162.119 8.28458 158.491 8.28458C152.67 8.28458 151.641 13.3474 150.937 13.8618C150.937 8.55532 145.062 7.14747 141.136 9.12387C139.918 9.71949 139.81 10.3422 138.889 10.9649V8.79898H133.853L133.691 26.0992C133.691 24.935 133.501 24.4748 133.501 23.2023L133.529 13.4557C133.474 6.19989 118.53 7.06625 117.284 12.3727C116.986 12.2103 116.905 12.0478 116.553 11.6688C113.954 7.52651 103.558 5.65841 100.309 14.3221L99.9839 1.75977H95.3001C94.867 1.78684 94.7587 1.92221 94.7587 2.32832Z" fill="white"/>
<path d="M35.3044 8.44714C35.3044 12.8602 37.4433 14.5388 41.748 15.8654C45.3218 16.9754 50.2492 17.0837 50.2492 20.5221C50.2492 23.9605 39.9882 25.0705 39.9882 18.7352H34.3839C34.3839 24.6373 39.2572 27.7508 44.4825 27.7508C49.1121 27.7508 52.9295 27.0198 55.0955 22.8775L55.285 27.2094H60.5102V21.0636C60.5102 20.5492 61.9181 19.3579 62.2971 19.0872L66.0062 25.0976C66.3853 25.7474 67.008 26.5325 67.1704 27.1823H73.4786C72.7476 25.8286 66.0062 16.2715 65.925 15.2968C66.6831 15.1073 70.69 10.8567 71.5022 10.0716C71.5022 13.9702 71.2586 18.3833 71.6647 21.9841C72.0979 25.8827 74.4533 27.7238 78.1624 27.7238C80.8157 27.7238 82.3859 26.4242 83.9292 24.6644V27.1823H88.8025V8.7991H83.5772V19.6016C83.5772 24.5561 76.7275 25.4225 76.7275 19.6016V8.7991H66.9809C66.0604 8.7991 61.5661 14.4034 60.5102 15.1073V1.78696H55.285V16.7318C54.9059 16.2986 54.7164 15.7571 54.1479 15.1615C52.6047 13.537 50.9531 12.9685 48.706 12.3187C47.0004 11.8314 40.8546 10.7484 40.8546 9.17813C40.8546 7.95981 40.6921 7.06637 41.9375 6.28123C43.1559 5.55023 48.1104 4.98168 49.1392 8.09518C49.7348 9.88206 48.0833 9.5301 54.933 9.5301C54.933 -2.03046 35.3044 -0.730915 35.3044 8.44714Z" fill="white"/>
<path d="M24.3124 14.7824C23.1753 11.7501 19.6286 11.3169 19.6286 8.98854C19.6286 6.60603 22.6609 2.13884 18.2749 0.6227C17.3002 0.324887 16.2173 0.0812217 15.0531 0H12.3457C10.4505 0.162443 8.58243 0.649774 7.14751 1.57029C4.3589 3.30302 2.70739 6.44359 1.92225 9.66539C1.38077 11.7772 0 12.6977 0 14.5658C0 15.7841 0.433182 17.0566 1.27247 16.5692C2.40958 15.9195 0.568552 14.2138 2.51787 14.2138C4.08816 14.2138 5.73967 16.5422 6.44359 17.6793C7.12044 18.8164 7.22873 18.9788 6.41652 20.0618C5.03575 21.8486 3.79035 22.2548 2.13884 20.3867C1.3537 19.5203 1.7598 18.7622 1.27247 17.8146C-0.812217 17.9771 0.974661 21.7403 2.11176 22.7421L3.70912 24.0416C5.55015 25.4495 7.06629 28.9691 7.33703 29.2398C7.95973 29.8625 8.41998 29.8084 9.53001 29.9167C10.9379 30.052 10.3964 30.6206 10.992 31.514C12.075 31.4057 12.1562 30.9455 12.2374 29.8896C13.6723 30.2686 11.7771 31.3245 14.2138 31.3245C15.026 31.3245 15.2155 30.3228 15.2968 29.5106C15.4592 27.7237 17.1378 27.9403 20.1971 25.2329C23.4731 22.4172 26.0451 19.4391 24.3124 14.7824ZM10.4505 25.2058C9.50294 24.8809 8.23047 25.1517 7.01214 25.2329C6.90385 24.7185 6.8497 24.8538 6.8497 24.5019C6.8497 23.3377 7.85143 21.3613 8.28461 20.522L10.5047 22.9857C11.1815 23.798 12.1562 24.6102 12.4269 25.7202C10.8025 26.1263 11.8584 25.6931 10.4505 25.2058ZM17.1107 22.336C13.0496 22.336 11.2898 17.4897 13.7265 14.647C16.1631 11.8042 21.4155 13.1308 21.5238 17.6793C21.605 20.143 19.6286 22.336 17.1107 22.336Z" fill="white"/>
<path d="M89.1544 2.32834V26.6407C89.1544 27.0468 89.2898 27.1551 89.6959 27.1551H94.3797V1.78687H89.6959C89.2898 1.78687 89.1544 1.92223 89.1544 2.32834Z" fill="white"/>
<path d="M187.893 29.3752C187.893 27.5071 186.377 25.991 184.509 25.991C182.641 25.991 181.152 27.5071 181.125 29.3752C181.125 31.2704 182.641 32.7594 184.509 32.7594C186.404 32.7594 187.893 31.2433 187.893 29.3752Z" stroke="white" stroke-width="0.812217"/>
<path d="M183.336 30.8032V27.7081H184.652C184.982 27.7081 185.222 27.7362 185.372 27.7925C185.522 27.8474 185.642 27.9459 185.733 28.0881C185.823 28.2302 185.868 28.3928 185.868 28.5758C185.868 28.808 185.799 29.0002 185.663 29.1522C185.526 29.3028 185.322 29.3978 185.051 29.4372C185.186 29.516 185.297 29.6026 185.384 29.6969C185.473 29.7912 185.592 29.9587 185.741 30.1994L186.119 30.8032H185.372L184.92 30.1297C184.759 29.889 184.649 29.7377 184.59 29.6758C184.531 29.6124 184.469 29.5695 184.402 29.547C184.336 29.5231 184.231 29.5111 184.088 29.5111H183.961V30.8032H183.336ZM183.961 29.0171H184.424C184.723 29.0171 184.911 29.0044 184.985 28.9791C185.06 28.9537 185.118 28.9101 185.16 28.8482C185.203 28.7862 185.224 28.7088 185.224 28.6159C185.224 28.5118 185.196 28.428 185.139 28.3647C185.084 28.2999 185.006 28.2591 184.905 28.2422C184.854 28.2352 184.702 28.2317 184.449 28.2317H183.961V29.0171Z" fill="white"/>
</svg>
