<svg width="48" height="48" viewBox="0 0 48 48" fill="none" xmlns="http://www.w3.org/2000/svg">
<path d="M24 43.1999C13.416 43.1999 4.8 34.5839 4.8 23.9999C4.8 13.4159 13.416 4.79994 24 4.79994C34.584 4.79994 43.2 13.4159 43.2 23.9999C43.2 34.5839 34.584 43.1999 24 43.1999ZM24 -6.10352e-05C20.8483 -6.10352e-05 17.7274 0.620717 14.8156 1.82683C11.9038 3.03294 9.25804 4.80077 7.02944 7.02938C2.52856 11.5302 0 17.6347 0 23.9999C0 30.3651 2.52856 36.4696 7.02944 40.9705C9.25804 43.1991 11.9038 44.9669 14.8156 46.173C17.7274 47.3792 20.8483 47.9999 24 47.9999C30.3652 47.9999 36.4697 45.4714 40.9706 40.9705C45.4714 36.4696 48 30.3651 48 23.9999C48 20.8482 47.3792 17.7274 46.1731 14.8155C44.967 11.9037 43.1992 9.25798 40.9706 7.02938C38.742 4.80077 36.0962 3.03294 33.1844 1.82683C30.2726 0.620717 27.1517 -6.10352e-05 24 -6.10352e-05ZM19.2 34.7999L33.6 23.9999L19.2 13.1999V34.7999Z" fill="white"/>
</svg>
