<svg width="25" height="33" viewBox="0 0 25 33" fill="none" xmlns="http://www.w3.org/2000/svg">
<path d="M24.4195 15.4172C23.2824 12.385 19.7357 11.9518 19.7357 9.62343C19.7357 7.24092 22.7679 2.77373 18.382 1.25759C17.4073 0.959775 16.3244 0.716109 15.1602 0.634888H12.4528C10.5576 0.797331 8.68951 1.28466 7.2546 2.20517C4.46598 3.9379 2.81448 7.07848 2.02933 10.3003C1.48786 12.412 0.107086 13.3326 0.107086 15.2007C0.107086 16.419 0.540269 17.6915 1.37956 17.2041C2.51666 16.5543 0.675638 14.8487 2.62496 14.8487C4.19525 14.8487 5.84675 17.177 6.55068 18.3141C7.22752 19.4513 7.33582 19.6137 6.5236 20.6967C5.14283 22.4835 3.89743 22.8896 2.24592 21.0215C1.46078 20.1552 1.86689 19.3971 1.37956 18.4495C-0.705131 18.612 1.08175 22.3752 2.21885 23.377L3.81621 24.6765C5.65724 26.0844 7.17338 29.604 7.44411 29.8747C8.06681 30.4974 8.52707 30.4433 9.6371 30.5516C11.0449 30.6869 10.5035 31.2555 11.0991 32.1489C12.182 32.0406 12.2633 31.5804 12.3445 30.5245C13.7794 30.9035 11.8842 31.9594 14.3209 31.9594C15.1331 31.9594 15.3226 30.9577 15.4038 30.1454C15.5663 28.3586 17.2449 28.5752 20.3042 25.8678C23.5802 23.0521 26.1522 20.074 24.4195 15.4172ZM10.5576 25.8407C9.61003 25.5158 8.33755 25.7865 7.11923 25.8678C7.01093 25.3534 6.95678 25.4887 6.95678 25.1368C6.95678 23.9726 7.95852 21.9962 8.3917 21.1569L10.6118 23.6206C11.2886 24.4329 12.2633 25.2451 12.534 26.3551C10.9096 26.7612 11.9655 26.328 10.5576 25.8407ZM17.2178 22.9709C13.1567 22.9709 11.3969 18.1246 13.8336 15.2819C16.2702 12.4391 21.5225 13.7657 21.6308 18.3141C21.7121 20.7779 19.7357 22.9709 17.2178 22.9709Z" fill="white"/>
</svg>
