<svg width="39" height="39" viewBox="0 0 39 39" fill="none" xmlns="http://www.w3.org/2000/svg">
<path d="M16.4746 14.3896L11.3594 26H9.11816L14.2246 14.917H7.60645V13.2031H16.4746V14.3896ZM19.6562 23.75C20.0547 23.75 20.3623 23.8643 20.5791 24.0928C20.7959 24.3154 20.9043 24.5967 20.9043 24.9365C20.9043 25.2705 20.7959 25.5488 20.5791 25.7715C20.3623 25.9883 20.0547 26.0967 19.6562 26.0967C19.2754 26.0967 18.9736 25.9883 18.751 25.7715C18.5283 25.5547 18.417 25.2764 18.417 24.9365C18.417 24.5967 18.5254 24.3154 18.7422 24.0928C18.959 23.8643 19.2637 23.75 19.6562 23.75ZM30.4404 21.4385H32.0312V23.1523H30.4404V26H28.3047V23.1523H22.7764L22.7148 21.8516L28.2344 13.2031H30.4404V21.4385ZM24.9561 21.4385H28.3047V16.0947L28.1465 16.376L24.9561 21.4385Z" fill="white"/>
<path d="M0.398253 23.4209C1.13852 27.0273 2.8846 30.3505 5.43454 33.006C7.98448 35.6616 11.2341 37.541 14.8075 38.427C18.3809 39.3129 22.1322 39.1692 25.6273 38.0123C29.1224 36.8555 32.2187 34.7329 34.5579 31.8899C36.8971 29.047 38.3837 25.5999 38.8458 21.9474C39.3079 18.2949 38.7265 14.5862 37.169 11.2503C35.6114 7.91443 33.1414 5.08759 30.0444 3.0968C26.9475 1.10601 23.3503 0.0326003 19.6688 0.000730625L19.6447 2.77903C22.8017 2.80636 25.8864 3.72683 28.542 5.43397C31.1977 7.14111 33.3159 9.56517 34.6515 12.4258C35.9871 15.2864 36.4856 18.4666 36.0894 21.5987C35.6931 24.7308 34.4183 27.6867 32.4124 30.1246C30.4065 32.5624 27.7514 34.3826 24.7543 35.3746C21.7571 36.3667 18.5404 36.4899 15.4761 35.7302C12.4118 34.9705 9.62524 33.3589 7.43862 31.0817C5.252 28.8045 3.7547 25.9548 3.11991 22.8622L0.398253 23.4209Z" fill="#006DBC"/>
</svg>
