<svg width="39" height="39" viewBox="0 0 39 39" fill="none" xmlns="http://www.w3.org/2000/svg">
<path d="M16.4746 14.3896L11.3594 26H9.11816L14.2246 14.917H7.60645V13.2031H16.4746V14.3896ZM19.6562 23.75C20.0547 23.75 20.3623 23.8643 20.5791 24.0928C20.7959 24.3154 20.9043 24.5967 20.9043 24.9365C20.9043 25.2705 20.7959 25.5488 20.5791 25.7715C20.3623 25.9883 20.0547 26.0967 19.6562 26.0967C19.2754 26.0967 18.9736 25.9883 18.751 25.7715C18.5283 25.5547 18.417 25.2764 18.417 24.9365C18.417 24.5967 18.5254 24.3154 18.7422 24.0928C18.959 23.8643 19.2637 23.75 19.6562 23.75ZM23.7871 19.6543L24.4814 13.2031H31.3545V15.0488H26.2568L25.9053 18.1074C26.4971 17.7676 27.165 17.5977 27.9092 17.5977C29.1279 17.5977 30.0742 17.9873 30.748 18.7666C31.4277 19.5459 31.7676 20.5947 31.7676 21.9131C31.7676 23.2139 31.3926 24.251 30.6426 25.0244C29.8926 25.792 28.8643 26.1758 27.5576 26.1758C26.3857 26.1758 25.4131 25.8447 24.6396 25.1826C23.8721 24.5146 23.4561 23.6357 23.3916 22.5459H25.457C25.5391 23.167 25.7617 23.6445 26.125 23.9785C26.4883 24.3066 26.9629 24.4707 27.5488 24.4707C28.2051 24.4707 28.7148 24.2363 29.0781 23.7676C29.4473 23.2988 29.6318 22.6602 29.6318 21.8516C29.6318 21.0723 29.4297 20.457 29.0254 20.0059C28.6211 19.5488 28.0645 19.3203 27.3555 19.3203C26.9688 19.3203 26.6406 19.373 26.3711 19.4785C26.1016 19.5781 25.8086 19.7773 25.4922 20.0762L23.7871 19.6543Z" fill="white"/>
<path d="M0.0330144 20.6342C0.254249 24.4313 1.58111 28.0808 3.85023 31.1333C6.11935 34.1859 9.23164 36.5082 12.8039 37.8143C16.3761 39.1204 20.2524 39.3532 23.9553 38.4842C27.6582 37.6152 31.0262 35.6822 33.6444 32.9233C36.2627 30.1644 38.0169 26.7 38.6912 22.9567C39.3654 19.2135 38.9302 15.3547 37.4392 11.8556C35.9481 8.35653 33.4663 5.3699 30.2993 3.26346C27.1323 1.15703 23.4184 0.0227669 19.615 0.00033901L19.5986 2.77869C22.8601 2.79793 26.0448 3.77058 28.7606 5.57688C31.4763 7.38319 33.6045 9.94428 34.8831 12.9448C36.1618 15.9453 36.5349 19.2543 35.9568 22.4642C35.3786 25.6742 33.8743 28.6449 31.6291 31.0107C29.3839 33.3766 26.4958 35.0341 23.3205 35.7793C20.1452 36.5245 16.8212 36.3248 13.758 35.2048C10.6947 34.0848 8.02585 32.0934 6.08004 29.4758C4.13424 26.8582 2.99643 23.7287 2.80671 20.4726L0.0330144 20.6342Z" fill="#006DBC"/>
</svg>
