<svg width="39" height="39" viewBox="0 0 39 39" fill="none" xmlns="http://www.w3.org/2000/svg">
<path d="M16.4746 14.3896L11.3594 26H9.11816L14.2246 14.917H7.60645V13.2031H16.4746V14.3896ZM19.6562 23.75C20.0547 23.75 20.3623 23.8643 20.5791 24.0928C20.7959 24.3154 20.9043 24.5967 20.9043 24.9365C20.9043 25.2705 20.7959 25.5488 20.5791 25.7715C20.3623 25.9883 20.0547 26.0967 19.6562 26.0967C19.2754 26.0967 18.9736 25.9883 18.751 25.7715C18.5283 25.5547 18.417 25.2764 18.417 24.9365C18.417 24.5967 18.5254 24.3154 18.7422 24.0928C18.959 23.8643 19.2637 23.75 19.6562 23.75ZM31.7324 14.3896L26.6172 26H24.376L29.4824 14.917H22.8643V13.2031H31.7324V14.3896Z" fill="white"/>
<path d="M0 19.5C-3.37166e-07 23.3567 1.14365 27.1269 3.28634 30.3336C5.42903 33.5404 8.47451 36.0397 12.0377 37.5157C15.6008 38.9916 19.5216 39.3777 23.3043 38.6253C27.0869 37.8729 30.5615 36.0157 33.2886 33.2886C36.0157 30.5615 37.8729 27.0869 38.6253 23.3043C39.3777 19.5216 38.9916 15.6008 37.5157 12.0377C36.0397 8.47452 33.5404 5.42903 30.3336 3.28634C27.1269 1.14366 23.3567 2.91176e-07 19.5 0L19.5 2.7784C22.8072 2.7784 26.0402 3.75911 28.79 5.5965C31.5399 7.43389 33.6831 10.0455 34.9487 13.1009C36.2144 16.1564 36.5455 19.5186 35.9003 22.7622C35.2551 26.0059 33.6625 28.9854 31.324 31.324C28.9854 33.6625 26.0059 35.2551 22.7622 35.9003C19.5185 36.5455 16.1564 36.2144 13.1009 34.9487C10.0454 33.6831 7.43389 31.5399 5.5965 28.79C3.75911 26.0402 2.7784 22.8072 2.7784 19.5L0 19.5Z" fill="#006DBC"/>
</svg>
