<svg width="39" height="39" viewBox="0 0 39 39" fill="none" xmlns="http://www.w3.org/2000/svg">
<path d="M16.4746 14.3896L11.3594 26H9.11816L14.2246 14.917H7.60645V13.2031H16.4746V14.3896ZM19.6562 23.75C20.0547 23.75 20.3623 23.8643 20.5791 24.0928C20.7959 24.3154 20.9043 24.5967 20.9043 24.9365C20.9043 25.2705 20.7959 25.5488 20.5791 25.7715C20.3623 25.9883 20.0547 26.0967 19.6562 26.0967C19.2754 26.0967 18.9736 25.9883 18.751 25.7715C18.5283 25.5547 18.417 25.2764 18.417 24.9365C18.417 24.5967 18.5254 24.3154 18.7422 24.0928C18.959 23.8643 19.2637 23.75 19.6562 23.75ZM29.2715 20.6475C28.5566 21.4033 27.7217 21.7812 26.7666 21.7812C25.6416 21.7812 24.7451 21.3887 24.0771 20.6035C23.4092 19.8125 23.0752 18.7754 23.0752 17.4922C23.0752 16.6484 23.2451 15.8838 23.585 15.1982C23.9248 14.5127 24.4082 13.9795 25.0352 13.5986C25.6621 13.2178 26.3887 13.0273 27.2148 13.0273C28.5039 13.0273 29.5264 13.5078 30.2822 14.4688C31.0381 15.4297 31.416 16.7158 31.416 18.3271V18.9248C31.416 21.2334 30.8945 22.9941 29.8516 24.207C28.8086 25.4199 27.2529 26.0352 25.1846 26.0527H24.9297V24.2861H25.2373C26.4971 24.2686 27.4639 23.9668 28.1377 23.3809C28.8115 22.7891 29.1895 21.8779 29.2715 20.6475ZM27.2148 20.1113C27.6426 20.1113 28.0439 19.9883 28.4189 19.7422C28.7939 19.4961 29.084 19.1562 29.2891 18.7227V17.8877C29.2891 16.9443 29.0957 16.1855 28.709 15.6113C28.3223 15.0371 27.8213 14.75 27.2061 14.75C26.5908 14.75 26.0986 15.0049 25.7295 15.5146C25.3662 16.0186 25.1846 16.6572 25.1846 17.4307C25.1846 18.2334 25.3691 18.8809 25.7383 19.373C26.1074 19.8652 26.5996 20.1113 27.2148 20.1113Z" fill="white"/>
<path d="M0.151231 17.0761C-0.340194 20.999 0.372383 24.9786 2.19448 28.4871C4.01657 31.9957 6.8621 34.8676 10.3538 36.722C13.8454 38.5763 17.8182 39.3255 21.7455 38.8703C25.6727 38.415 29.3687 36.7768 32.3436 34.1728C35.3184 31.5689 37.4315 28.1222 38.4026 24.2898C39.3737 20.4574 39.157 16.4204 37.7811 12.714C36.4053 9.00757 33.9354 5.80692 30.6988 3.53642C27.4623 1.26592 23.6121 0.032825 19.6587 0.00064594L19.6361 2.77896C23.0262 2.80655 26.3278 3.86395 29.1032 5.81095C31.8786 7.75794 33.9966 10.5026 35.1764 13.6809C36.3562 16.8592 36.542 20.321 35.7093 23.6073C34.8766 26.8937 33.0646 29.8493 30.5136 32.0822C27.9626 34.3152 24.7932 35.72 21.4255 36.1104C18.0579 36.5008 14.6511 35.8583 11.6569 34.2681C8.66278 32.678 6.22268 30.2153 4.66021 27.2066C3.09773 24.198 2.48668 20.7854 2.90809 17.4215L0.151231 17.0761Z" fill="#006DBC"/>
</svg>
