<svg width="39" height="39" viewBox="0 0 39 39" fill="none" xmlns="http://www.w3.org/2000/svg">
<path d="M16.0176 16.5781C16.0176 17.2051 15.8564 17.7646 15.5342 18.2568C15.2119 18.7432 14.7725 19.127 14.2158 19.4082C14.8838 19.7188 15.3965 20.1436 15.7539 20.6826C16.1172 21.2217 16.2988 21.8311 16.2988 22.5107C16.2988 23.6357 15.918 24.5293 15.1562 25.1914C14.3945 25.8477 13.3809 26.1758 12.1152 26.1758C10.8438 26.1758 9.82422 25.8447 9.05664 25.1826C8.29492 24.5205 7.91406 23.6299 7.91406 22.5107C7.91406 21.8252 8.0957 21.21 8.45898 20.665C8.82227 20.1201 9.33203 19.7012 9.98828 19.4082C9.4375 19.127 9.00098 18.7432 8.67871 18.2568C8.3623 17.7646 8.2041 17.2051 8.2041 16.5781C8.2041 15.4883 8.55566 14.624 9.25879 13.9854C9.96191 13.3467 10.9111 13.0273 12.1064 13.0273C13.3076 13.0273 14.2598 13.3467 14.9629 13.9854C15.666 14.624 16.0176 15.4883 16.0176 16.5781ZM14.1631 22.4053C14.1631 21.7725 13.9727 21.2627 13.5918 20.876C13.2168 20.4834 12.7188 20.2871 12.0977 20.2871C11.4766 20.2871 10.9785 20.4805 10.6035 20.8672C10.2344 21.2539 10.0498 21.7666 10.0498 22.4053C10.0498 23.0322 10.2314 23.5332 10.5947 23.9082C10.9639 24.2832 11.4707 24.4707 12.1152 24.4707C12.7598 24.4707 13.2607 24.2891 13.6182 23.9258C13.9814 23.5625 14.1631 23.0557 14.1631 22.4053ZM13.8906 16.6572C13.8906 16.1006 13.7295 15.6436 13.4072 15.2861C13.085 14.9229 12.6514 14.7412 12.1064 14.7412C11.5615 14.7412 11.1309 14.9141 10.8145 15.2598C10.498 15.5996 10.3398 16.0654 10.3398 16.6572C10.3398 17.2432 10.498 17.709 10.8145 18.0547C11.1367 18.4004 11.5703 18.5732 12.1152 18.5732C12.6602 18.5732 13.0908 18.4004 13.4072 18.0547C13.7295 17.709 13.8906 17.2432 13.8906 16.6572ZM19.6562 23.75C20.0547 23.75 20.3623 23.8643 20.5791 24.0928C20.7959 24.3154 20.9043 24.5967 20.9043 24.9365C20.9043 25.2705 20.7959 25.5488 20.5791 25.7715C20.3623 25.9883 20.0547 26.0967 19.6562 26.0967C19.2754 26.0967 18.9736 25.9883 18.751 25.7715C18.5283 25.5547 18.417 25.2764 18.417 24.9365C18.417 24.5967 18.5254 24.3154 18.7422 24.0928C18.959 23.8643 19.2637 23.75 19.6562 23.75ZM28.999 26H26.8721V15.7256L23.7344 16.7979V14.9961L28.7266 13.1592H28.999V26Z" fill="white"/>
<path d="M1.68654 11.5671C-0.0222283 15.4042 -0.446347 19.6905 0.477303 23.788C1.40095 27.8856 3.62299 31.5753 6.81273 34.3082C10.0025 37.0411 13.9894 38.671 18.1801 38.9553C22.3708 39.2396 26.5413 38.1631 30.071 35.8861C33.6006 33.6091 36.3006 30.2533 37.7692 26.318C39.2378 22.3828 39.3965 18.0785 38.2217 14.0458C37.0468 10.0131 34.6012 6.46751 31.2489 3.93677C27.8965 1.40603 23.8166 0.0253971 19.6163 0.000346785L19.5997 2.7787C23.2015 2.80018 26.7002 3.9841 29.5749 6.15426C32.4496 8.32441 34.5467 11.3648 35.5542 14.8229C36.5616 18.281 36.4256 21.972 35.1662 25.3466C33.9068 28.7211 31.5915 31.5988 28.5648 33.5514C25.5381 35.504 21.9618 36.427 18.3682 36.1832C14.7745 35.9394 11.3557 34.5418 8.62044 32.1983C5.88518 29.8548 3.97975 26.6908 3.1877 23.177C2.39565 19.6633 2.75934 15.9878 4.22464 12.6974L1.68654 11.5671Z" fill="#006DBC"/>
</svg>
