<svg width="40" height="50" viewBox="0 0 40 50" fill="none" xmlns="http://www.w3.org/2000/svg">
<path d="M2.9792 10.7704L11.1029 5.86689L18.641 3.89087L24.7887 4.91547C24.7887 4.91547 30.2044 7.03787 30.4972 7.33062C30.7899 7.62336 35.8398 13.9905 35.9129 14.5029C35.9861 15.0152 36.2057 26.5054 36.2057 26.5054L30.9363 34.7022L23.9104 43.4845L18.8606 46.8511L12.4934 40.1912C12.4934 40.1912 6.93125 32.7994 6.93125 32.4334C6.93125 32.0675 1.88141 19.7723 1.88141 18.8208C1.88141 17.8694 2.9792 10.7704 2.9792 10.7704Z" fill="white"/>
<path d="M29.4586 21.3608C28.3772 21.3608 27.3949 21.7758 24.3682 23.9477V35.6358C29.6155 29.7399 31.1095 25.7059 31.1095 23.6364C31.1034 22.188 30.4354 21.3608 29.4586 21.3608ZM29.8714 13.6028C29.8714 11.5278 27.505 9.82622 24.3682 9.6201V20.4298C28.3264 18.1029 29.87 15.7692 29.87 13.6028H29.8714ZM39.1854 9.01557C39.1344 8.80945 39.0822 8.73197 38.979 8.70569L35.2699 7.72212L34.7554 5.60139C34.7292 5.49761 34.7032 5.42018 34.6013 5.39527L30.7931 4.36052L30.3308 2.34217C30.3246 2.22026 30.2414 2.11606 30.1245 2.08349L20.2381 0.239444C20.0762 0.209085 19.9102 0.209085 19.7483 0.239444L9.85782 2.08349C9.74088 2.11602 9.6577 2.22026 9.65146 2.34217L9.18782 4.36052L5.38102 5.39389C5.27786 5.41883 5.25308 5.49628 5.2269 5.60001L4.71236 7.72072L1.01289 8.70569C0.911125 8.73203 0.858771 8.80947 0.807887 9.01557C0.495539 10.67 0.340287 12.3505 0.344251 14.0344C0.344251 28.9334 8.06239 41.8679 19.5873 49.5761C19.6848 49.7066 19.8377 49.7836 20 49.7836C20.1624 49.7836 20.3154 49.7067 20.4128 49.5761C31.9377 41.8679 39.6558 28.9334 39.6558 14.0344C39.6563 12.3503 39.4984 10.6698 39.1839 9.01557H39.1854ZM18.5487 42.7228C18.5487 42.8266 18.4455 42.8778 18.3437 42.7739C15.5137 39.5161 13.611 35.5334 12.3246 31.1882L10.3696 32.4332C9.8551 32.7957 9.44374 32.6407 9.13144 32.0722C6.50782 27.4171 4.8101 19.7602 4.65603 14.383C4.64828 14.1332 4.74122 13.891 4.91329 13.7107C5.61377 12.8674 6.36986 12.0725 7.17646 11.3313C7.33058 11.1763 7.486 11.2788 7.486 11.5374C7.486 18.1582 8.6169 24.3128 10.4178 28.3481C10.5719 28.658 10.726 28.658 10.9323 28.5031L11.4978 28.1406C10.4178 23.3306 9.80006 16.9173 9.95415 9.52044C9.95415 9.26174 10.0064 9.15799 10.1605 9.05562C10.9489 8.56127 11.7741 8.12883 12.6287 7.76217C12.8859 7.65839 12.9382 7.7109 12.9382 7.9171C12.7925 18.6742 13.6701 26.1195 15.5701 32.068C15.6211 32.223 15.7751 32.1704 15.7751 32.0155C15.6719 29.8436 15.6719 27.9304 15.6719 25.6022L15.5702 7.03318C15.5702 6.82706 15.6211 6.72331 15.8274 6.67213C16.6738 6.46205 17.5327 6.30634 18.3988 6.20594C18.4411 6.19974 18.4835 6.21524 18.5137 6.24528C18.5439 6.27564 18.5583 6.31824 18.5529 6.36084L18.5487 42.7228ZM21.6359 42.7739C21.5328 42.8777 21.4296 42.8264 21.4296 42.7228V6.36225C21.4234 6.31965 21.4388 6.27705 21.4687 6.24669C21.4989 6.21633 21.5414 6.20177 21.5837 6.20735C28.4763 6.67354 32.9009 9.57033 32.9009 13.7592C32.8999 15.497 32.2583 17.1729 31.1 18.4627C33.3631 19.0838 34.2381 20.7909 34.2381 23.0665C34.2428 27.1018 31.3104 33.7752 21.6401 42.774L21.6359 42.7739Z" fill="#024EB4"/>
</svg>
